<svg width="24" height="24" viewBox="0 0 24 24" fill="none" xmlns="http://www.w3.org/2000/svg">
<path d="M21.93 7.65999C21.91 7.60999 21.89 7.54999 21.86 7.49999C21.8413 7.47234 21.8213 7.44564 21.8 7.41999C21.77 7.37999 21.74 7.32999 21.7 7.29999C21.67 7.26999 21.64 7.25999 21.61 7.22999C21.57 7.19999 21.54 7.16999 21.5 7.13999H21.49L12.49 2.12999C12.3419 2.04677 12.1749 2.00305 12.005 2.00305C11.8351 2.00305 11.6681 2.04677 11.52 2.12999L2.51 7.12999H2.5C2.46 7.14999 2.43 7.18999 2.39 7.21999C2.35785 7.24041 2.32771 7.26385 2.3 7.28999C2.26 7.32999 2.23 7.36999 2.2 7.40999C2.18 7.43999 2.15 7.45999 2.14 7.48999C2.11 7.53999 2.09 7.58999 2.07 7.64999C2.06 7.67999 2.04 7.69999 2.04 7.72999C2.02 7.80999 2 7.89999 2 7.98999V15.99C2 16.35 2.2 16.69 2.51 16.86L11.51 21.86L11.66 21.92C11.69 21.93 11.72 21.95 11.75 21.95C11.9145 21.9884 12.0855 21.9884 12.25 21.95C12.28 21.95 12.31 21.93 12.34 21.92C12.39 21.9 12.44 21.89 12.49 21.86L21.49 16.86C21.81 16.68 22 16.35 22 15.99V7.98999C22 7.89999 21.99 7.80999 21.96 7.72999C21.96 7.69999 21.94 7.67999 21.93 7.64999V7.65999ZM12 4.14999L18.94 8.00999L16.5 9.36999L9.56 5.50999L12 4.14999ZM7.5 6.64999L14.44 10.51L12 11.87L5.06 8.00999L7.5 6.64999ZM4 9.70999L11 13.6V19.31L4 15.42V9.70999ZM20 15.42L13 19.31V13.6L15.5 12.21V15.42L17.5 14.31V11.1L20 9.70999V15.42Z" fill="black"/>
</svg>
