<svg width="32" height="32" viewBox="0 0 32 32" fill="none" xmlns="http://www.w3.org/2000/svg">
<path d="M3.99983 22.6667H19.9998C20.3397 22.6671 20.6665 22.7972 20.9137 23.0305C21.1608 23.2638 21.3095 23.5826 21.3294 23.9219C21.3493 24.2611 21.2389 24.5952 21.0208 24.8558C20.8027 25.1164 20.4933 25.2839 20.1558 25.324L19.9998 25.3334H3.99983C3.65999 25.333 3.33312 25.2028 3.086 24.9696C2.83889 24.7363 2.69018 24.4174 2.67026 24.0782C2.65035 23.7389 2.76072 23.4048 2.97884 23.1442C3.19697 22.8836 3.50636 22.7162 3.84382 22.676L3.99983 22.6667ZM3.99983 17.3334H27.9998C28.3397 17.3337 28.6665 17.4639 28.9136 17.6972C29.1608 17.9304 29.3095 18.2493 29.3294 18.5885C29.3493 18.9278 29.2389 19.2619 29.0208 19.5225C28.8027 19.7831 28.4933 19.9505 28.1558 19.9907L27.9998 20H3.99983C3.65999 19.9996 3.33312 19.8695 3.086 19.6362C2.83889 19.4029 2.69018 19.0841 2.67026 18.7448C2.65035 18.4056 2.76072 18.0715 2.97884 17.8109C3.19697 17.5503 3.50636 17.3828 3.84382 17.3427L3.99983 17.3334ZM3.99983 12H27.9998C28.3397 12.0004 28.6665 12.1305 28.9136 12.3638C29.1608 12.5971 29.3095 12.916 29.3294 13.2552C29.3493 13.5945 29.2389 13.9285 29.0208 14.1891C28.8027 14.4497 28.4933 14.6172 28.1558 14.6574L27.9998 14.6667H3.99983C3.65999 14.6663 3.33312 14.5362 3.086 14.3029C2.83889 14.0696 2.69018 13.7507 2.67026 13.4115C2.65035 13.0722 2.76072 12.7382 2.97884 12.4776C3.19697 12.217 3.50636 12.0495 3.84382 12.0094L3.99983 12ZM3.99983 6.66669H27.9998C28.3397 6.66706 28.6665 6.79719 28.9136 7.03048C29.1608 7.26378 29.3095 7.58262 29.3294 7.92188C29.3493 8.26114 29.2389 8.59519 29.0208 8.8558C28.8027 9.1164 28.4933 9.28388 28.1558 9.32402L27.9998 9.33335H3.99983C3.65999 9.33298 3.33312 9.20285 3.086 8.96956C2.83889 8.73626 2.69018 8.41742 2.67026 8.07816C2.65035 7.7389 2.76072 7.40485 2.97884 7.14424C3.19697 6.88364 3.50636 6.71616 3.84382 6.67602L3.99983 6.66669Z" fill="#2E2C2A"/>
</svg>
