<svg width="24" height="24" viewBox="0 0 24 24" fill="none" xmlns="http://www.w3.org/2000/svg">
<path d="M5.6041 2.40005C4.8553 2.40005 4.1941 2.92565 4.0561 3.68165C3.8785 4.66324 3.6001 6.41044 3.6001 7.80004C3.6001 9.27724 4.3633 10.5756 5.5141 11.3232C5.8393 11.5356 6.0001 11.8092 6.0001 12.0432V12.5352C6.0001 12.5568 5.9989 12.5784 5.9965 12.6C5.9641 12.912 5.8153 14.3148 5.6749 15.7572C5.5369 17.1792 5.4001 18.6972 5.4001 19.2C5.4001 19.8366 5.65295 20.447 6.10304 20.8971C6.55313 21.3472 7.16358 21.6 7.8001 21.6C8.43662 21.6 9.04707 21.3472 9.49715 20.8971C9.94724 20.447 10.2001 19.8366 10.2001 19.2C10.2001 18.696 10.0633 17.1792 9.9253 15.7572C9.8227 14.7048 9.7155 13.6528 9.6037 12.6012L9.6001 12.5352V12.0432C9.6001 11.808 9.7609 11.5344 10.0861 11.3232C10.6736 10.9421 11.1564 10.4201 11.4907 9.80479C11.8249 9.18946 12.0001 8.50031 12.0001 7.80004C12.0001 6.41044 11.7217 4.66324 11.5441 3.68165C11.4774 3.32037 11.2858 2.99406 11.0028 2.75978C10.7198 2.52549 10.3635 2.39816 9.9961 2.40005C9.5881 2.40005 9.2161 2.55244 8.9353 2.80324C8.61444 2.54245 8.21358 2.40007 7.8001 2.40005C7.3693 2.40005 6.9745 2.55125 6.6649 2.80324C6.37354 2.54272 5.99495 2.39911 5.6041 2.40005ZM7.2001 4.20004C7.2001 4.04092 7.26331 3.8883 7.37583 3.77578C7.48836 3.66326 7.64097 3.60004 7.8001 3.60004C7.95923 3.60004 8.11184 3.66326 8.22436 3.77578C8.33688 3.8883 8.4001 4.04092 8.4001 4.20004V7.80004C8.4001 7.95917 8.46331 8.11179 8.57583 8.22431C8.68836 8.33683 8.84097 8.40004 9.0001 8.40004C9.15923 8.40004 9.31184 8.33683 9.42436 8.22431C9.53688 8.11179 9.6001 7.95917 9.6001 7.80004V3.99604C9.6001 3.94404 9.61034 3.89255 9.63024 3.8445C9.65014 3.79646 9.67931 3.7528 9.71608 3.71603C9.75286 3.67926 9.79651 3.65009 9.84456 3.63019C9.8926 3.61029 9.94409 3.60004 9.9961 3.60004C10.1845 3.60004 10.3321 3.72964 10.3633 3.89644C10.5397 4.87204 10.8001 6.52684 10.8001 7.80004C10.8002 8.30049 10.675 8.793 10.4361 9.23272C10.1972 9.67244 9.85201 10.0454 9.4321 10.3176C8.9053 10.6596 8.4001 11.2608 8.4001 12.0432V12.5352C8.4001 12.5992 8.4033 12.6632 8.4097 12.7272C8.4433 13.0368 8.5909 14.436 8.7313 15.8736C8.8729 17.3316 9.0001 18.7716 9.0001 19.2C9.0001 19.5183 8.87367 19.8235 8.64863 20.0486C8.42358 20.2736 8.11836 20.4 7.8001 20.4C7.48184 20.4 7.17661 20.2736 6.95157 20.0486C6.72653 19.8235 6.6001 19.5183 6.6001 19.2C6.6001 18.7716 6.7273 17.3316 6.8689 15.8736C7.0093 14.436 7.1569 13.0368 7.1905 12.7272C7.1969 12.6632 7.2001 12.5992 7.2001 12.5352V12.0432C7.2001 11.2608 6.6949 10.6596 6.1681 10.3176C5.74818 10.0454 5.40304 9.67244 5.16411 9.23272C4.92518 8.793 4.80004 8.30049 4.8001 7.80004C4.8001 6.52804 5.0605 4.87204 5.2369 3.89644C5.25333 3.81145 5.29936 3.73504 5.36681 3.68077C5.43426 3.6265 5.51876 3.5979 5.6053 3.60004C5.71012 3.60036 5.81053 3.64222 5.88454 3.71645C5.95854 3.79068 6.0001 3.89123 6.0001 3.99604V7.80004C6.0001 7.95917 6.06331 8.11179 6.17583 8.22431C6.28836 8.33683 6.44097 8.40004 6.6001 8.40004C6.75923 8.40004 6.91184 8.33683 7.02436 8.22431C7.13688 8.11179 7.2001 7.95917 7.2001 7.80004V4.20004ZM13.2001 7.80004C13.2001 6.36788 13.769 4.99436 14.7817 3.98167C15.7944 2.96897 17.1679 2.40005 18.6001 2.40005C18.7592 2.40005 18.9118 2.46326 19.0244 2.57578C19.1369 2.6883 19.2001 2.84092 19.2001 3.00005V11.3736L19.2241 11.6424C19.3176 12.7206 19.4088 13.799 19.4977 14.8776C19.6465 16.686 19.8001 18.6708 19.8001 19.2C19.8001 19.8366 19.5472 20.447 19.0972 20.8971C18.6471 21.3472 18.0366 21.6 17.4001 21.6C16.7636 21.6 16.1531 21.3472 15.703 20.8971C15.253 20.447 15.0001 19.8366 15.0001 19.2C15.0001 18.672 15.1537 16.686 15.3025 14.8776C15.3769 13.9644 15.4525 13.0812 15.5089 12.4272L15.5449 12H15.0001C14.5227 12 14.0649 11.8104 13.7273 11.4728C13.3897 11.1353 13.2001 10.6774 13.2001 10.2V7.80004ZM16.7977 11.4528L16.7725 11.7468L16.7041 12.5304C16.6477 13.1832 16.5721 14.064 16.4977 14.976C16.3465 16.8204 16.2001 18.7344 16.2001 19.2C16.2001 19.5183 16.3265 19.8235 16.5516 20.0486C16.7766 20.2736 17.0818 20.4 17.4001 20.4C17.7184 20.4 18.0236 20.2736 18.2486 20.0486C18.4737 19.8235 18.6001 19.5183 18.6001 19.2C18.6001 18.7344 18.4537 16.8204 18.3025 14.976C18.2135 13.8994 18.1219 12.823 18.0277 11.7468L18.0025 11.454V11.4528L18.0001 11.4V3.64205C17.0003 3.78635 16.086 4.28615 15.4248 5.04983C14.7636 5.81351 14.3998 6.7899 14.4001 7.80004V10.2C14.4001 10.3592 14.4633 10.5118 14.5758 10.6243C14.6884 10.7368 14.841 10.8 15.0001 10.8H16.2001C16.2833 10.8001 16.3657 10.8174 16.4418 10.8509C16.518 10.8845 16.5864 10.9335 16.6426 10.9949C16.6988 11.0563 16.7416 11.1287 16.7683 11.2076C16.795 11.2864 16.805 11.3699 16.7977 11.4528Z" fill="black"/>
</svg>
