<svg width="24" height="24" viewBox="0 0 24 24" fill="none" xmlns="http://www.w3.org/2000/svg">
<path d="M8.4001 4.80002C8.4001 4.1635 8.65295 3.55306 9.10304 3.10297C9.55313 2.65288 10.1636 2.40002 10.8001 2.40002C11.4366 2.40002 12.0471 2.65288 12.4972 3.10297C12.9472 3.55306 13.2001 4.1635 13.2001 4.80002V6.00002H16.0549C16.6914 6.00016 17.3017 6.25311 17.7517 6.70322L20.2237 9.17522C20.2796 9.23096 20.3239 9.29717 20.3542 9.37006C20.3844 9.44296 20.4 9.5211 20.4 9.60002C20.4 9.67895 20.3844 9.75709 20.3542 9.82998C20.3239 9.90288 20.2796 9.96909 20.2237 10.0248L17.7517 12.4968C17.3017 12.9469 16.6914 13.1999 16.0549 13.2H13.2001V20.4C13.2001 20.7183 13.0737 21.0235 12.8486 21.2486C12.6236 21.4736 12.3184 21.6 12.0001 21.6H9.6001C9.28184 21.6 8.97661 21.4736 8.75157 21.2486C8.52653 21.0235 8.4001 20.7183 8.4001 20.4V13.2H6.0001C5.36358 13.2 4.75313 12.9472 4.30304 12.4971C3.85295 12.047 3.6001 11.4365 3.6001 10.8V8.40002C3.6001 7.7635 3.85295 7.15306 4.30304 6.70297C4.75313 6.25288 5.36358 6.00002 6.0001 6.00002H8.4001V4.80002ZM9.6001 6.00002H12.0001V4.80002C12.0001 4.48176 11.8737 4.17654 11.6486 3.9515C11.4236 3.72645 11.1184 3.60002 10.8001 3.60002C10.4818 3.60002 10.1766 3.72645 9.95157 3.9515C9.72653 4.17654 9.6001 4.48176 9.6001 4.80002V6.00002ZM9.6001 13.2V20.4H12.0001V13.2H9.6001ZM4.8001 8.40002V10.8C4.8001 11.1183 4.92653 11.4235 5.15157 11.6486C5.37661 11.8736 5.68184 12 6.0001 12H16.0549C16.3731 12 16.6783 11.8735 16.9033 11.6484L18.9517 9.60002L16.9033 7.55162C16.6783 7.32657 16.3731 7.20009 16.0549 7.20002H6.0001C5.68184 7.20002 5.37661 7.32645 5.15157 7.5515C4.92653 7.77654 4.8001 8.08176 4.8001 8.40002Z" fill="black"/>
</svg>
