<svg width="32" height="32" viewBox="0 0 32 32" fill="none" xmlns="http://www.w3.org/2000/svg">
<path fill-rule="evenodd" clip-rule="evenodd" d="M6 3C6 2.73479 6.10536 2.48043 6.29289 2.29289C6.48043 2.10536 6.73478 2 7 2H18C18.1314 1.99977 18.2616 2.02543 18.3831 2.07554C18.5045 2.12564 18.615 2.1992 18.708 2.292L25.708 9.292C25.8008 9.38504 25.8744 9.49546 25.9245 9.61694C25.9746 9.73842 26.0002 9.86859 26 10V15H24V11H18C17.7348 11 17.4804 10.8946 17.2929 10.7071C17.1054 10.5196 17 10.2652 17 10V4H8V28H19V30H7C6.73478 30 6.48043 29.8946 6.29289 29.7071C6.10536 29.5196 6 29.2652 6 29V3ZM19 5.414L22.586 9H19V5.414ZM24.708 18.294L28.708 22.294C28.8955 22.4815 29.0008 22.7358 29.0008 23.001C29.0008 23.2662 28.8955 23.5205 28.708 23.708L24.708 27.708L23.292 26.292L25.586 24H16V22H25.586L23.292 19.708L24.708 18.294Z" fill="#2E2C2A"/>
</svg>
