<svg width="32" height="32" viewBox="0 0 32 32" fill="none" xmlns="http://www.w3.org/2000/svg">
<path d="M18.667 22.6666H6.66699M25.3337 9.33331H13.3337" stroke="#2E2C2A" stroke-width="2" stroke-linecap="round" stroke-linejoin="round"/>
<path d="M22.667 26.6666C24.8761 26.6666 26.667 24.8758 26.667 22.6666C26.667 20.4575 24.8761 18.6666 22.667 18.6666C20.4579 18.6666 18.667 20.4575 18.667 22.6666C18.667 24.8758 20.4579 26.6666 22.667 26.6666Z" stroke="#2E2C2A" stroke-width="2" stroke-linecap="round" stroke-linejoin="round"/>
<path d="M9.3335 13.3333C11.5426 13.3333 13.3335 11.5425 13.3335 9.33331C13.3335 7.12417 11.5426 5.33331 9.3335 5.33331C7.12436 5.33331 5.3335 7.12417 5.3335 9.33331C5.3335 11.5425 7.12436 13.3333 9.3335 13.3333Z" stroke="#2E2C2A" stroke-width="2" stroke-linecap="round" stroke-linejoin="round"/>
</svg>
