<svg width="25" height="25" viewBox="0 0 25 25" fill="none" xmlns="http://www.w3.org/2000/svg">
<path d="M14.2905 10.272C14.2905 11.9565 12.896 11.9565 12.1445 11.9565H11.2076V8.772H12.385C13.0435 8.772 14.2905 8.772 14.2905 10.272ZM21.4886 8.5905C21.6276 6.8765 22.1241 5.3035 23 3.8615L19.6405 0.5C18.579 1.414 17.371 1.92 16.001 2.0095C14.7685 2.12791 13.5284 1.87841 12.4375 1.2925C11.287 1.8655 10.102 2.105 8.86655 2.0095C7.58855 1.895 6.43555 1.442 5.40255 0.639L2.03355 3.999C2.86255 5.46167 3.32288 6.99217 3.41455 8.5905C3.45755 9.3265 3.24755 10.3395 2.77655 11.649C2.53005 12.375 2.34355 13.005 2.21655 13.531C2.09905 14.0535 2.02555 14.4785 2.00105 14.7965C1.98355 16.192 2.37505 17.452 3.17755 18.5715C3.80455 19.389 4.83855 20.2915 6.27455 21.279C7.84555 22.079 9.06155 22.5985 9.91305 22.8195L10.6191 23.1475C10.8411 23.2545 11.0791 23.358 11.3275 23.471C11.863 23.792 12.2395 24.1405 12.4375 24.4995C12.6805 24.111 13.0651 23.7715 13.576 23.471C13.8829 23.3396 14.1868 23.2016 14.4875 23.057C14.7325 22.9495 14.915 22.8685 15.021 22.819C15.2529 22.7069 15.4893 22.6044 15.7295 22.5115C16.021 22.397 16.3805 22.2565 16.81 22.1015C17.64 21.807 18.244 21.5295 18.628 21.2785C20.0205 20.291 21.0385 19.4035 21.6866 18.609C22.5175 17.4845 22.921 16.219 22.9025 14.796C22.8535 14.159 22.584 13.1395 22.0945 11.7505C21.6275 10.3985 21.4205 9.3485 21.4886 8.5905ZM15.3135 13.1955C14.5161 13.7175 13.4195 13.7175 12.847 13.7175H11.2745V18.0205H8.91005V6.9825H12.2666C13.8265 6.9825 15.1311 7.083 16.0371 8.1875C16.6026 8.8905 16.698 9.689 16.698 10.2565C16.697 11.542 16.1676 12.627 15.3135 13.1955Z" fill="black"/>
</svg>
