<svg width="24" height="24" viewBox="0 0 24 24" fill="none" xmlns="http://www.w3.org/2000/svg">
<path d="M8.875 21.45C7.80833 21.0833 6.84167 20.5833 5.975 19.95C5.10833 19.3167 4.396 18.575 3.838 17.725C3.28 16.875 3.00067 15.9667 3 15V13C3 12.8 3.09167 12.65 3.275 12.55C3.45833 12.45 3.63333 12.4667 3.8 12.6L6.075 14.3C6.30833 14.4833 6.43733 14.7293 6.462 15.038C6.48667 15.3467 6.391 15.609 6.175 15.825L5.45 16.55C5.93333 17.4 6.7 18.1333 7.75 18.75C8.8 19.3667 9.88333 19.7583 11 19.925V11H9C8.71667 11 8.47933 10.904 8.288 10.712C8.09667 10.52 8.00067 10.2827 8 10C7.99933 9.71733 8.09533 9.48 8.288 9.288C8.48067 9.096 8.718 9 9 9H11V7.825C10.4167 7.60833 9.93767 7.24567 9.563 6.737C9.18833 6.22833 9.00067 5.64933 9 5C9 4.16667 9.29167 3.45833 9.875 2.875C10.4583 2.29167 11.1667 2 12 2C12.8333 2 13.5417 2.29167 14.125 2.875C14.7083 3.45833 15 4.16667 15 5C15 5.65 14.8127 6.22933 14.438 6.738C14.0633 7.24667 13.584 7.609 13 7.825V9H15C15.2833 9 15.521 9.096 15.713 9.288C15.905 9.48 16.0007 9.71733 16 10C15.9993 10.2827 15.9033 10.5203 15.712 10.713C15.5207 10.9057 15.2833 11.0013 15 11H13V19.925C14.1167 19.7583 15.2 19.3667 16.25 18.75C17.3 18.1333 18.0667 17.4 18.55 16.55L17.825 15.825C17.6083 15.6083 17.5123 15.346 17.537 15.038C17.5617 14.73 17.691 14.484 17.925 14.3L20.2 12.6C20.3667 12.4667 20.5417 12.45 20.725 12.55C20.9083 12.65 21 12.8 21 13V15C21 15.9667 20.7207 16.875 20.162 17.725C19.6033 18.575 18.891 19.3167 18.025 19.95C17.159 20.5833 16.1923 21.0833 15.125 21.45C14.0577 21.8167 13.016 22 12 22C10.984 22 9.94233 21.8167 8.875 21.45ZM12 6C12.2833 6 12.521 5.90433 12.713 5.713C12.905 5.52167 13.0007 5.284 13 5C12.9993 4.716 12.9033 4.47867 12.712 4.288C12.5207 4.09733 12.2833 4.00133 12 4C11.7167 3.99867 11.4793 4.09467 11.288 4.288C11.0967 4.48133 11.0007 4.71867 11 5C10.9993 5.28133 11.0953 5.519 11.288 5.713C11.4807 5.907 11.718 6.00267 12 6Z" fill="black"/>
</svg>
