<svg width="32" height="32" viewBox="0 0 32 32" fill="none" xmlns="http://www.w3.org/2000/svg">
<path d="M5.33317 26.6666C4.59984 26.6666 3.97228 26.4058 3.4505 25.884C2.92873 25.3622 2.66739 24.7342 2.6665 24V7.99998C2.6665 7.26665 2.92784 6.63909 3.4505 6.11731C3.97317 5.59553 4.60073 5.3342 5.33317 5.33331H13.3332L15.9998 7.99998H26.6665C27.3998 7.99998 28.0278 8.26131 28.5505 8.78398C29.0732 9.30665 29.3341 9.9342 29.3332 10.6666V24C29.3332 24.7333 29.0723 25.3613 28.5505 25.884C28.0287 26.4066 27.4007 26.6675 26.6665 26.6666H5.33317ZM5.33317 24H26.6665V10.6666H14.8998L12.2332 7.99998H5.33317V24Z" fill="#2E2C2A"/>
</svg>
