<svg width="24" height="24" viewBox="0 0 24 24" fill="none" xmlns="http://www.w3.org/2000/svg">
<path d="M15 21V14.9C15 14.4167 15.1583 13.9917 15.475 13.625C15.7917 13.2583 16.1917 13.0333 16.675 12.95C17.6417 12.7833 18.4377 12.3293 19.063 11.588C19.6883 10.8467 20.0007 9.984 20 9C20 7.9 19.6083 6.95833 18.825 6.175C18.0417 5.39167 17.1 5 16 5C15.0167 5 14.154 5.31267 13.412 5.938C12.67 6.56333 12.216 7.359 12.05 8.325C11.9667 8.80833 11.7417 9.20833 11.375 9.525C11.0083 9.84167 10.5833 10 10.1 10H5.825L7.425 11.6L6 13L2 9L6 5L7.4 6.4L5.825 8H10.075C10.3083 6.53333 10.9877 5.33333 12.113 4.4C13.2383 3.46667 14.534 3 16 3C17.6667 3 19.0833 3.58333 20.25 4.75C21.4167 5.91667 22 7.33333 22 9C22 10.4667 21.5333 11.7627 20.6 12.888C19.6667 14.0133 18.4667 14.692 17 14.924V21H15Z" fill="black"/>
</svg>
