<svg width="24" height="24" viewBox="0 0 24 24" fill="none" xmlns="http://www.w3.org/2000/svg">
<path d="M22.1101 21.46L2.39011 1.72998L1.11011 2.99998L4.06011 5.94998C2.72683 7.68525 2.0028 9.81165 2.00011 12C2.00011 17.5 6.50011 22 12.0001 22C14.2801 22 16.3701 21.23 18.0501 19.94L20.8401 22.73L22.1101 21.46ZM12.0001 20C7.58011 20 4.00011 16.42 4.00011 12C4.00011 10.27 4.56011 8.67998 5.50011 7.37998L16.6201 18.5C15.2797 19.4802 13.6607 20.0059 12.0001 20ZM8.17011 4.96998L6.72011 3.49998C8.25011 2.55998 10.0601 1.99998 12.0001 1.99998C17.5001 1.99998 22.0001 6.49998 22.0001 12C22.0001 13.94 21.4401 15.75 20.5001 17.28L19.0301 15.83C19.6501 14.69 20.0001 13.39 20.0001 12C20.0001 7.57998 16.4201 3.99998 12.0001 3.99998C10.6101 3.99998 9.31011 4.34998 8.17011 4.96998Z" fill="black"/>
</svg>
