<svg width="24" height="24" viewBox="0 0 24 24" fill="none" xmlns="http://www.w3.org/2000/svg">
<path d="M14.6349 17.57C15.4364 17.2243 16.304 17.0586 17.1766 17.0845C18.0491 17.1104 18.9053 17.3274 19.6849 17.72L21.4489 18.607L21.5389 18.657C21.7483 18.7899 21.9009 18.9959 21.967 19.2349C22.0331 19.474 22.008 19.7291 21.8966 19.9506C21.7852 20.1722 21.5954 20.3445 21.3641 20.434C21.1328 20.5235 20.8765 20.5239 20.6449 20.435L20.5509 20.394L18.7869 19.506C18.2683 19.2446 17.6986 19.1002 17.118 19.0829C16.5375 19.0656 15.9602 19.1759 15.4269 19.406L15.2129 19.506L14.6859 19.771C13.9062 20.1639 13.0498 20.3809 12.1771 20.4068C11.3044 20.4327 10.4366 20.2669 9.63491 19.921L9.31491 19.771L8.78691 19.506C8.26827 19.2446 7.69857 19.1002 7.11802 19.0829C6.53746 19.0656 5.96019 19.1759 5.42691 19.406L5.21291 19.506L3.44891 20.394C3.21222 20.5108 2.93897 20.5292 2.68875 20.4453C2.43853 20.3614 2.23162 20.182 2.11312 19.9462C1.99462 19.7104 1.97414 19.4373 2.05615 19.1864C2.13816 18.9356 2.316 18.7273 2.55091 18.607L4.31491 17.72L4.63491 17.57C5.43644 17.2243 6.30404 17.0586 7.17656 17.0845C8.04909 17.1104 8.90531 17.3274 9.68491 17.72L10.2129 17.985L10.4269 18.084C10.9601 18.3143 11.5374 18.4248 12.1179 18.4077C12.6985 18.3906 13.2682 18.2463 13.7869 17.985L14.3149 17.72L14.6349 17.57ZM14.6349 13.043C15.4364 12.6973 16.304 12.5316 17.1766 12.5575C18.0491 12.5834 18.9053 12.8004 19.6849 13.193L21.4489 14.079L21.5389 14.129C21.7483 14.2619 21.9009 14.4679 21.967 14.7069C22.0331 14.946 22.008 15.2011 21.8966 15.4226C21.7852 15.6442 21.5954 15.8165 21.3641 15.906C21.1328 15.9955 20.8765 15.9959 20.6449 15.907L20.5509 15.867L18.7869 14.978C18.2683 14.7166 17.6986 14.5722 17.118 14.5549C16.5375 14.5376 15.9602 14.6479 15.4269 14.878L15.2129 14.978L14.6859 15.244C13.9062 15.6369 13.0498 15.8539 12.1771 15.8798C11.3044 15.9057 10.4366 15.7399 9.63491 15.394L9.31491 15.244L8.78691 14.979C8.26827 14.7176 7.69857 14.5732 7.11802 14.5559C6.53746 14.5386 5.96019 14.6489 5.42691 14.879L5.21291 14.979L3.44891 15.866C3.21222 15.9828 2.93897 16.0012 2.68875 15.9173C2.43853 15.8334 2.23162 15.654 2.11312 15.4182C1.99462 15.1824 1.97414 14.9093 2.05615 14.6584C2.13816 14.4076 2.316 14.1993 2.55091 14.079L4.31491 13.192L4.63491 13.043C5.43644 12.6973 6.30404 12.5316 7.17656 12.5575C8.04909 12.5834 8.90531 12.8004 9.68491 13.193L10.2129 13.458L10.4269 13.558C10.9602 13.7882 11.5375 13.8985 12.118 13.8812C12.6986 13.8639 13.2683 13.7195 13.7869 13.458L14.3149 13.192L14.6349 13.043ZM14.6349 8.51604C15.4364 8.17033 16.304 8.00459 17.1766 8.03051C18.0491 8.05643 18.9053 8.27337 19.6849 8.66604L21.4489 9.55204L21.5389 9.60204C21.7483 9.73492 21.9009 9.94088 21.967 10.1799C22.0331 10.419 22.008 10.6741 21.8966 10.8956C21.7852 11.1172 21.5954 11.2895 21.3641 11.379C21.1328 11.4685 20.8765 11.4689 20.6449 11.38L20.5509 11.339L18.7869 10.451C18.2681 10.1899 17.6984 10.0458 17.1178 10.0289C16.5372 10.0119 15.96 10.1226 15.4269 10.353L15.2129 10.451L14.6859 10.717C13.9062 11.1099 13.0498 11.3269 12.1771 11.3528C11.3044 11.3787 10.4366 11.2129 9.63491 10.867L9.31491 10.717L8.78691 10.451C8.26812 10.1899 7.69835 10.0458 7.1178 10.0289C6.53724 10.0119 5.96004 10.1226 5.42691 10.353L5.21291 10.451L3.44891 11.339C3.21222 11.4558 2.93897 11.4742 2.68875 11.3903C2.43853 11.3064 2.23162 11.127 2.11312 10.8912C1.99462 10.6554 1.97414 10.3823 2.05615 10.1314C2.13816 9.88057 2.316 9.67232 2.55091 9.55204L4.31491 8.66504L4.63491 8.51504C5.43644 8.16933 6.30404 8.00359 7.17656 8.02951C8.04909 8.05543 8.90531 8.27237 9.68491 8.66504L10.2129 8.93104L10.4269 9.03104C10.9602 9.26118 11.5375 9.37149 12.118 9.35421C12.6986 9.33694 13.2683 9.19248 13.7869 8.93104L14.3149 8.66504L14.6349 8.51604ZM14.6349 3.98804C15.4364 3.64233 16.304 3.47659 17.1766 3.50251C18.0491 3.52843 18.9053 3.74537 19.6849 4.13804L21.4489 5.02504L21.5389 5.07504C21.7525 5.2143 21.9049 5.42983 21.965 5.67764C22.0251 5.92544 21.9884 6.18684 21.8623 6.40849C21.7363 6.63013 21.5304 6.79531 21.2866 6.87031C21.0429 6.9453 20.7798 6.92446 20.5509 6.81204L18.7869 5.92504C18.2683 5.66361 17.6986 5.51915 17.118 5.50187C16.5375 5.4846 15.9602 5.59491 15.4269 5.82504L15.2129 5.92504L14.6859 6.18904C13.9062 6.58187 13.0498 6.79889 12.1771 6.82481C11.3044 6.85073 10.4366 6.68491 9.63491 6.33904L9.31491 6.18904L8.78691 5.92504C8.26827 5.66361 7.69857 5.51915 7.11802 5.50187C6.53746 5.4846 5.96019 5.59491 5.42691 5.82504L5.21291 5.92504L3.44891 6.81204L3.35591 6.85404C3.1156 6.94824 2.84818 6.94587 2.60957 6.84743C2.37097 6.74899 2.17967 6.5621 2.0757 6.32585C1.97172 6.08961 1.96311 5.82231 2.05168 5.57987C2.14025 5.33743 2.31914 5.13863 2.55091 5.02504L4.31491 4.13804L4.63491 3.98804C5.43644 3.64233 6.30404 3.47659 7.17656 3.50251C8.04909 3.52843 8.90531 3.74537 9.68491 4.13804L10.2129 4.40304L10.4269 4.50304C10.9602 4.73317 11.5375 4.84349 12.118 4.82621C12.6986 4.80893 13.2683 4.66448 13.7869 4.40304L14.3149 4.13804L14.6349 3.98804Z" fill="black"/>
</svg>
