<svg width="24" height="24" viewBox="0 0 24 24" fill="none" xmlns="http://www.w3.org/2000/svg">
<path d="M18.4 19.2C18.6122 19.2 18.8157 19.1158 18.9657 18.9657C19.1158 18.8157 19.2 18.6122 19.2 18.4C19.2 18.1879 19.1158 17.9844 18.9657 17.8344C18.8157 17.6843 18.6122 17.6 18.4 17.6H15.84C14.0352 17.6 12.728 17.6 11.7008 17.5152C10.6832 17.432 10.0112 17.2704 9.45765 16.9888C8.40357 16.4519 7.5466 15.5949 7.00965 14.5408C6.72965 13.9888 6.56805 13.3168 6.48485 12.2992C6.40005 11.272 6.40005 9.96485 6.40005 8.16005V5.60005C6.40005 5.38788 6.31576 5.18439 6.16573 5.03436C6.0157 4.88433 5.81222 4.80005 5.60005 4.80005C5.38788 4.80005 5.18439 4.88433 5.03436 5.03436C4.88433 5.18439 4.80005 5.38788 4.80005 5.60005V8.16005C4.80005 9.93765 4.80005 11.3216 4.89125 12.4288C4.98245 13.544 5.16805 14.4528 5.58405 15.2688C6.2744 16.624 7.37612 17.7257 8.73125 18.416C9.54725 18.832 10.456 19.0176 11.5712 19.1088C12.6784 19.2 14.064 19.2 15.84 19.2H18.4Z" fill="black"/>
</svg>
