<svg width="24" height="24" viewBox="0 0 24 24" fill="none" xmlns="http://www.w3.org/2000/svg">
<path d="M18.4 4.80005C18.6122 4.80005 18.8157 4.88433 18.9657 5.03436C19.1158 5.18439 19.2 5.38788 19.2 5.60005C19.2 5.81222 19.1158 6.0157 18.9657 6.16573C18.8157 6.31576 18.6122 6.40005 18.4 6.40005H15.84C14.0352 6.40005 12.728 6.40005 11.7008 6.48485C10.6832 6.56805 10.0112 6.72965 9.45765 7.01125C8.40357 7.5482 7.5466 8.40517 7.00965 9.45925C6.72965 10.0112 6.56805 10.6832 6.48485 11.7008C6.40005 12.728 6.40005 14.0352 6.40005 15.84V18.4C6.40005 18.6122 6.31576 18.8157 6.16573 18.9657C6.0157 19.1158 5.81222 19.2 5.60005 19.2C5.38788 19.2 5.18439 19.1158 5.03436 18.9657C4.88433 18.8157 4.80005 18.6122 4.80005 18.4V15.84C4.80005 14.0624 4.80005 12.6784 4.89125 11.5712C4.98245 10.456 5.16805 9.54725 5.58405 8.73125C6.2744 7.37612 7.37612 6.2744 8.73125 5.58405C9.54725 5.16805 10.456 4.98245 11.5712 4.89125C12.6784 4.80005 14.064 4.80005 15.84 4.80005H18.4Z" fill="black"/>
</svg>
