<svg width="24" height="24" viewBox="0 0 24 24" fill="none" xmlns="http://www.w3.org/2000/svg">
<path d="M5.60005 19.2C5.38788 19.2 5.18439 19.1158 5.03436 18.9657C4.88433 18.8157 4.80005 18.6122 4.80005 18.4C4.80005 18.1879 4.88433 17.9844 5.03436 17.8344C5.18439 17.6843 5.38788 17.6 5.60005 17.6H8.16005C9.96485 17.6 11.272 17.6 12.2992 17.5152C13.3168 17.432 13.9888 17.2704 14.5424 16.9888C15.5965 16.4519 16.4535 15.5949 16.9904 14.5408C17.2704 13.9888 17.432 13.3168 17.5152 12.2992C17.6 11.272 17.6 9.96485 17.6 8.16005V5.60005C17.6 5.38788 17.6843 5.18439 17.8344 5.03436C17.9844 4.88433 18.1879 4.80005 18.4 4.80005C18.6122 4.80005 18.8157 4.88433 18.9657 5.03436C19.1158 5.18439 19.2 5.38788 19.2 5.60005V8.16005C19.2 9.93765 19.2 11.3216 19.1088 12.4288C19.0176 13.544 18.832 14.4528 18.416 15.2688C17.7257 16.624 16.624 17.7257 15.2688 18.416C14.4528 18.832 13.544 19.0176 12.4288 19.1088C11.3216 19.2 9.93605 19.2 8.16005 19.2H5.60005Z" fill="black"/>
</svg>
