<svg width="24" height="24" viewBox="0 0 24 24" fill="none" xmlns="http://www.w3.org/2000/svg">
<path d="M5.60005 4.80005C5.38788 4.80005 5.18439 4.88433 5.03436 5.03436C4.88433 5.18439 4.80005 5.38788 4.80005 5.60005C4.80005 5.81222 4.88433 6.0157 5.03436 6.16573C5.18439 6.31576 5.38788 6.40005 5.60005 6.40005H8.16005C9.96485 6.40005 11.272 6.40005 12.2992 6.48485C13.3168 6.56805 13.9888 6.72965 14.5424 7.01125C15.5965 7.5482 16.4535 8.40517 16.9904 9.45925C17.2704 10.0112 17.432 10.6832 17.5152 11.7008C17.6 12.728 17.6 14.0352 17.6 15.84V18.4C17.6 18.6122 17.6843 18.8157 17.8344 18.9657C17.9844 19.1158 18.1879 19.2 18.4 19.2C18.6122 19.2 18.8157 19.1158 18.9657 18.9657C19.1158 18.8157 19.2 18.6122 19.2 18.4V15.84C19.2 14.0624 19.2 12.6784 19.1088 11.5712C19.0176 10.456 18.832 9.54725 18.416 8.73125C17.7257 7.37612 16.624 6.2744 15.2688 5.58405C14.4528 5.16805 13.544 4.98245 12.4288 4.89125C11.3216 4.80005 9.93605 4.80005 8.16005 4.80005H5.60005Z" fill="black"/>
</svg>
