<svg width="24" height="24" viewBox="0 0 24 24" fill="none" xmlns="http://www.w3.org/2000/svg">
<path d="M11 5H13M19 12C18.3333 17.3333 16.6667 20 14 20H10C7.33333 20 5.66667 17.3333 5 12" stroke="black" stroke-width="2" stroke-linecap="round" stroke-linejoin="round"/>
<path d="M12.0001 18V20M10.0001 11V11.01M14.0001 11V11.01M11.0001 16C11.0001 16.6667 11.3334 17 12.0001 17C13.0001 17 13.0001 16.667 13.0001 16H11.0001ZM5.00011 4L11.0001 4.97L4.76211 11.658C4.58702 11.8552 4.34236 11.9769 4.07947 11.9976C3.81659 12.0183 3.5559 11.9363 3.35211 11.769C3.21355 11.6567 3.1094 11.5077 3.05157 11.339C2.99374 11.1703 2.98457 10.9887 3.02511 10.815L5.00011 4ZM19.0001 4L13.0001 4.97L19.2381 11.658C19.5961 12.066 20.2271 12.116 20.6481 11.769C20.7867 11.6567 20.8908 11.5077 20.9487 11.339C21.0065 11.1703 21.0156 10.9887 20.9751 10.815L19.0001 4Z" stroke="black" stroke-width="2" stroke-linecap="round" stroke-linejoin="round"/>
</svg>
